<?xml version="1.0" encoding="utf-8"?>
<!-- Generator: Adobe Illustrator 24.3.0, SVG Export Plug-In . SVG Version: 6.00 Build 0)  -->
<svg version="1.1" id="Layer_1" xmlns="http://www.w3.org/2000/svg" xmlns:xlink="http://www.w3.org/1999/xlink" x="0px" y="0px"
	 viewBox="0 0 24 24" style="enable-background:new 0 0 24 24;" xml:space="preserve">
<style type="text/css">
	.st0{fill:#F4F9FF;}
	.st1{fill:#EF4B3E;}
	.st2{fill:#754C24;stroke:#FFFFFF;stroke-width:0.75;stroke-miterlimit:10;}
	.st3{stroke:#000000;stroke-width:2.856;stroke-miterlimit:10;}
	.st4{fill:none;stroke:#FFFFFF;stroke-width:2;stroke-miterlimit:10;}
	.st5{fill:#FFFFFF;}
	.st6{fill:#F9F9F9;}
	.st7{fill:none;stroke:#FFFFFF;stroke-width:2.0229;stroke-miterlimit:10;}
	.st8{fill:#FFFFFF;stroke:#FFFFFF;stroke-width:0.5;stroke-miterlimit:10;}
	.st9{fill:none;stroke:#000000;stroke-width:7.6112;stroke-miterlimit:10;}
	.st10{stroke:#FFFFFF;stroke-miterlimit:10;}
	.st11{fill:none;stroke:#000000;stroke-width:6.6078;stroke-miterlimit:10;}
	.st12{stroke:#000000;stroke-width:1.7107;stroke-miterlimit:10;}
	.st13{fill:#FFFFFF;stroke:#EF4B3E;stroke-width:0.5304;stroke-miterlimit:10;}
	.st14{fill:#FFFFFF;stroke:#FFFFFF;stroke-width:0.406;stroke-miterlimit:10;}
	.st15{fill:none;stroke:#FFFFFF;stroke-width:1.0951;stroke-miterlimit:10;}
	.st16{fill:#FFFFFF;stroke:#FFFFFF;stroke-width:0.2707;stroke-miterlimit:10;}
	.st17{fill:#FFFFFF;stroke:#FFFFFF;stroke-width:0.3006;stroke-miterlimit:10;}
	.st18{stroke:#000000;stroke-width:0.25;stroke-miterlimit:10;}
	.st19{fill:#EF4B3E;stroke:#EF4B3E;stroke-width:0.5;stroke-miterlimit:10;}
	.st20{fill:#EF4B3E;stroke:#EF4B3E;stroke-width:0.5497;stroke-miterlimit:10;}
	.st21{fill:#FFFFFF;stroke:#FFFFFF;stroke-width:0.5497;stroke-miterlimit:10;}
	.st22{fill:#898989;}
	.st23{fill:#212529;}
	.st24{fill:#898989;stroke:#898989;stroke-width:0.25;stroke-miterlimit:10;}
	.st25{fill:#898989;stroke:#212529;stroke-width:0.25;stroke-miterlimit:10;}
	.st26{fill:#898989;stroke:#212529;stroke-width:0.1275;stroke-miterlimit:10;}
	.st27{fill:#898989;stroke:#212529;stroke-width:0.0697;stroke-miterlimit:10;}
	.st28{fill:#FF0000;}
	.st29{fill:#FFFF00;}
	.st30{fill:#00FF00;}
	.st31{fill:#00FFFF;}
	.st32{fill:#0000FF;}
	.st33{fill:#FF00FF;}
	.st34{fill:#C1272D;}
	.st35{fill:#F15A24;}
	.st36{fill:#F7931E;}
	.st37{fill:#FCEE21;}
	.st38{fill:#8CC63F;}
	.st39{fill:#006837;}
	.st40{fill:#ED1E79;}
	.st41{fill:#603813;}
	.st42{fill:#FFFFFF;stroke:#000000;stroke-width:0.4185;stroke-miterlimit:10;}
	.st43{fill:#454966;stroke:#454966;stroke-width:0.3101;stroke-miterlimit:10;}
	.st44{fill:#454966;stroke:#454966;stroke-miterlimit:10;}
	.st45{fill:#454966;stroke:#454966;stroke-width:0.75;stroke-miterlimit:10;}
	.st46{fill:#454966;}
	.st47{fill:#454966;stroke:#454966;stroke-width:0.3041;stroke-miterlimit:10;}
	.st48{fill:#202020;}
	.st49{fill:#FFFFFF;stroke:#454966;stroke-width:0.5;stroke-miterlimit:10;}
	.st50{fill:#DDDDDD;}
	.st51{fill:#FE5245;}
	.st52{fill:#FE9C39;}
	.st53{fill:#FFE831;}
	.st54{fill:#7ADFFE;}
	.st55{fill:#32AE49;}
	.st56{fill:none;}
	.st57{fill:#454966;stroke:#454966;stroke-width:0.5;stroke-miterlimit:10;}
	.st58{fill:#454966;stroke:#454966;stroke-width:0.5267;stroke-miterlimit:10;}
	.st59{fill:#454966;stroke:#454966;stroke-width:0.1953;stroke-miterlimit:10;}
	.st60{fill:#454966;stroke:#454966;stroke-width:0.4787;stroke-miterlimit:10;}
	.st61{fill:#454966;stroke:#454966;stroke-width:0.0519;stroke-miterlimit:10;}
	.st62{opacity:0.43;}
	.st63{fill:#454966;stroke:#454966;stroke-width:0.1042;stroke-miterlimit:10;}
	.st64{fill:#454966;stroke:#454966;stroke-width:0.1317;stroke-miterlimit:10;}
	.st65{fill:#454966;stroke:#454966;stroke-width:0.1847;stroke-miterlimit:10;}
	.st66{fill:#454966;stroke:#454966;stroke-width:0.0673;stroke-miterlimit:10;}
	.st67{fill:#F8F8FA;stroke:#B3B3B3;stroke-width:0.5857;stroke-miterlimit:10;}
	.st68{fill:#FFFFFF;stroke:#111827;stroke-width:0.3859;stroke-miterlimit:10;}
	.st69{fill:#F0493E;}
</style>
<g>
	<path class="st5" d="M21.31,9.73c0,0.01,0,0.03,0,0.04c0,0.43,0,0.87-0.01,1.3l0,0.01c-0.43,0.01-0.87,0.01-1.3,0.02
		c-0.45-0.02-0.9-0.02-1.34,0c-0.44-0.02-0.89-0.02-1.33,0c-0.44-0.03-0.87-0.02-1.31,0c-0.44-0.02-0.89-0.02-1.33,0
		c-0.44-0.03-0.87-0.01-1.31-0.01c-0.01-0.03-0.02-0.05-0.03-0.08c0.03-0.38,0.03-0.76,0-1.13c0.02-0.04,0.02-0.07,0-0.11
		c0-0.45,0-0.89,0-1.34c0.02-0.04,0.02-0.07,0-0.11c0.03-0.39,0.03-0.77,0-1.16c0.02-0.02,0.02-0.05,0-0.07c0-0.43,0-0.87,0-1.3
		c0.02-0.04,0.02-0.07,0-0.11c0.03-0.38,0.03-0.75,0-1.13c0.02-0.04,0.01-0.07,0-0.11c0.01-0.43,0.01-0.86,0-1.29
		c0.25-0.05,0.5-0.01,0.75-0.02c0.19-0.01,0.39,0,0.58-0.01c0.45,0,0.89,0,1.34,0c0.43,0,0.87,0,1.3,0c0.45,0,0.89,0,1.34,0
		c0.45,0,0.89,0,1.34,0c0.38,0,0.76,0.01,1.14,0c0.14,0,0.17,0.05,0.17,0.18c-0.01,0.38,0,0.76,0.01,1.14c0,0.45,0,0.89,0,1.34
		c0,0.04,0,0.07,0,0.11c0,0.41,0,0.82,0,1.23c0,0.43,0,0.87,0,1.3c0,0.02,0,0.05,0,0.07c-0.01,0.4-0.01,0.8,0,1.2
		C21.3,9.71,21.3,9.72,21.31,9.73z M18.72,9.76c0.38,0,0.77,0.01,1.15,0.01c0.08,0,0.11-0.03,0.11-0.11
		c-0.01-0.37-0.01-0.75-0.01-1.12c0-0.04,0-0.07,0-0.11c0-0.43,0-0.87,0-1.3c0.01-0.43,0.01-0.85,0-1.28c0-0.02,0-0.04,0-0.06
		c0-0.41,0-0.82,0.01-1.23c0-0.1-0.04-0.12-0.12-0.12c-0.4,0.01-0.81,0.01-1.21,0.01c-0.45,0-0.89,0-1.34,0c-0.43,0-0.87,0-1.3,0
		c-0.41,0-0.82,0-1.22-0.01c-0.08,0-0.11,0.03-0.11,0.11c0.01,0.41,0.01,0.82,0.01,1.22c0,0.43,0,0.87,0,1.3
		c-0.01,0.45-0.01,0.89,0,1.34c0,0.41,0,0.82-0.01,1.23c0,0.07,0.03,0.1,0.1,0.1c0.41-0.01,0.82-0.01,1.23-0.01
		c0.44,0.02,0.87,0.02,1.31,0c0.45,0.02,0.89,0.02,1.34,0C18.67,9.76,18.7,9.76,18.72,9.76z"/>
	<path class="st5" d="M2.75,5.79c0-0.02,0-0.05,0-0.07c0-0.42,0-0.85,0-1.27c0-0.44,0.01-0.88,0.01-1.32c0.43,0,0.87,0,1.3,0
		c0.04,0,0.07,0,0.11,0c0.41,0,0.82,0,1.23,0c0.45,0,0.89,0,1.34,0c0.43,0.01,0.87,0.01,1.3,0c0.45,0,0.89,0,1.34,0
		c0.44,0.01,0.87,0.03,1.3-0.01c0.01,0.01,0.01,0.01,0.02,0c0,0.06,0,0.12,0,0.18c0,0.39-0.02,0.77,0.01,1.16c0,0.45,0,0.89,0,1.34
		c-0.03,0.45-0.03,0.89,0,1.34c0,0.43,0,0.87,0,1.3c-0.03,0.45-0.03,0.89,0,1.34c0,0.43,0,0.86-0.01,1.3
		c-0.01,0-0.02,0.01-0.02,0.02c-0.46,0-0.91-0.02-1.37,0.01c-0.4-0.03-0.81-0.03-1.21,0c-0.45-0.03-0.91-0.02-1.36,0
		c-0.45-0.02-0.9-0.02-1.34,0c-0.45-0.02-0.89-0.02-1.34,0c-0.44-0.04-0.87,0-1.31-0.02l0-0.01c0-0.4,0-0.8-0.01-1.2
		c0-0.04,0-0.07,0-0.11c0-0.45,0-0.89,0-1.34c0-0.04,0-0.07,0-0.11c0-0.38,0-0.75,0-1.13c0-0.04,0-0.07,0-0.11
		C2.75,6.66,2.75,6.23,2.75,5.79z M8.05,9.76c0.41,0,0.83,0.01,1.24,0.01c0.08,0,0.09-0.05,0.09-0.11c0-0.41-0.01-0.82-0.01-1.23
		c0-0.45,0-0.89,0-1.34c0.02-0.44,0.02-0.87,0-1.31c0-0.4,0-0.81,0.01-1.21c0-0.09-0.03-0.12-0.12-0.12
		c-0.4,0.01-0.81,0.01-1.21,0.01c-0.43,0-0.87,0-1.3,0c-0.45,0-0.89,0-1.34,0c-0.41,0-0.82,0-1.22-0.01c-0.08,0-0.11,0.03-0.11,0.11
		c0.01,0.41,0.01,0.82,0.01,1.22c0,0.43,0,0.87,0,1.3c-0.01,0.45-0.01,0.89,0,1.34c0,0.41,0,0.82-0.01,1.23c0,0.07,0.03,0.1,0.1,0.1
		C4.59,9.76,5,9.76,5.41,9.76c0.45,0.02,0.89,0.02,1.34,0C7.18,9.78,7.61,9.78,8.05,9.76z"/>
	<path class="st5" d="M2.75,16.39c0-0.04,0-0.07,0-0.11c0.01-0.4,0.01-0.8,0-1.2c0-0.45,0.01-0.89,0.01-1.34l0,0
		c0.43,0,0.87-0.01,1.3-0.01c0.45,0.02,0.89,0.02,1.34,0c0.45,0.02,0.89,0.02,1.34,0c0.43,0.02,0.87,0.02,1.3,0
		c0.45,0.02,0.89,0.02,1.34,0c0.44,0.03,0.87,0.01,1.31,0.01c0,0.08,0,0.15,0.01,0.23c0.01,0.37-0.02,0.75,0.02,1.12
		c0,0.43,0,0.87,0,1.3c-0.03,0.45-0.03,0.89,0,1.34c0,0.44,0,0.89,0,1.33c-0.03,0.44-0.03,0.87,0,1.31c0,0.44-0.01,0.89-0.01,1.33
		l-0.01,0l-0.01,0.01c-0.43,0-0.87,0-1.3,0c-0.45,0-0.89,0-1.34,0c-0.43,0-0.87,0-1.3,0c-0.45,0-0.89,0-1.34,0
		c-0.45,0-0.89,0-1.34,0c-0.43,0-0.87,0-1.3-0.01c-0.01-0.42-0.01-0.84-0.02-1.27c0-0.48,0-0.96,0-1.44c0.02-0.39,0.01-0.78,0-1.16
		c0-0.04,0-0.07,0-0.11C2.75,17.29,2.75,16.84,2.75,16.39z M9.37,20.34c0.01-0.42,0.01-0.85,0-1.27c0-0.45,0-0.89,0-1.34
		c0.01-0.45,0.01-0.89,0-1.34c0-0.4,0-0.8,0.01-1.19c0-0.09-0.03-0.12-0.12-0.12c-0.4,0.01-0.81,0.01-1.21,0.01
		c-0.43,0-0.87,0-1.3,0c-0.45,0-0.89,0-1.34,0c-0.4,0-0.81,0-1.21-0.01c-0.09,0-0.12,0.03-0.12,0.12c0.01,0.4,0.01,0.8,0.01,1.19
		c0,0.45,0,0.89,0,1.34c-0.01,0.45-0.01,0.89,0,1.34c0,0.42,0,0.84,0,1.27c0.01,0.1,0.09,0.05,0.14,0.05c0.34,0,0.68,0,1.02,0
		c1.32,0,2.64,0,3.96,0C9.26,20.39,9.35,20.45,9.37,20.34z"/>
	<path class="st5" d="M18.64,20.38c0,0.44,0,0.88,0,1.33c-0.44,0-0.88,0-1.32-0.01c0,0,0,0,0,0c0-0.44,0-0.88,0-1.32
		C17.76,20.38,18.2,20.38,18.64,20.38L18.64,20.38z"/>
	<path class="st5" d="M19.99,21.71c-0.01-0.44-0.02-0.89,0-1.33c0.43,0,0.86,0,1.29,0c0,0,0,0,0,0c0.02,0.44,0.01,0.89,0,1.33
		C20.86,21.71,20.42,21.71,19.99,21.71z"/>
	<path class="st5" d="M14.68,20.37c-0.01,0.45-0.01,0.89-0.02,1.34c-0.43,0-0.87,0-1.3,0c-0.03-0.35,0-0.7-0.01-1.04
		c0-0.07-0.01-0.15-0.01-0.22c0.02-0.02,0.02-0.05,0-0.07c0-0.43,0-0.87,0-1.3c0.02-0.02,0.02-0.05,0-0.07c0.03-0.4,0.03-0.8,0-1.2
		c0.02-0.02,0.02-0.05,0-0.07c0-0.45,0-0.89,0-1.34c0.02-0.04,0.02-0.07,0-0.11c0.02-0.4,0.03-0.8,0-1.2c0-0.44,0-0.89,0.01-1.33
		c0.01,0,0.02,0,0.02-0.02c0.43,0.01,0.87,0.02,1.3,0c0.45,0.02,0.89,0.02,1.34,0c0.43,0.02,0.87,0.01,1.3,0
		c0,0.01,0.01,0.02,0.02,0.02c0,0.39,0,0.79,0,1.18c0,0.09,0.01,0.14,0.12,0.14c0.4-0.01,0.8-0.01,1.2-0.01c0.39,0,0.77,0,1.16,0.02
		c0.13,0,0.18-0.03,0.18-0.17c-0.01-0.39,0-0.77,0-1.16c0.44,0,0.87,0,1.31,0l0,0c0,0.45,0.01,0.89,0.01,1.34c0,0.43,0,0.87,0,1.3
		c-0.01,0.45-0.01,0.89,0,1.34c0,0.38,0,0.76-0.01,1.14c0,0.06-0.01,0.13-0.01,0.19c0,0,0,0,0,0c-0.43,0-0.87,0-1.3,0.01
		c-0.45,0-0.89,0-1.34,0c-0.45,0-0.89,0-1.34,0c-0.43,0-0.87,0-1.3-0.01l0,0c0-0.4-0.01-0.8-0.01-1.19c0-0.08,0-0.14-0.12-0.14
		c-0.37,0.01-0.74,0-1.11,0c-0.09,0-0.11,0.03-0.11,0.11c0.01,0.41,0.01,0.82,0.01,1.23C14.68,19.5,14.68,19.94,14.68,20.37z"/>
	<path class="st5" d="M18.65,5.79c0,0.02,0.01,0.05,0.01,0.07c0,0.42,0,0.85,0,1.27c0,0.43-0.01,0.87-0.01,1.3
		c-0.45,0-0.89,0.01-1.34,0.01c-0.43,0-0.87-0.01-1.3-0.01c0-0.45-0.01-0.89-0.01-1.34c0-0.43,0.01-0.87,0.01-1.3
		c0.43-0.01,0.87-0.01,1.3-0.02c0.38,0,0.76,0.01,1.15,0.01C18.52,5.79,18.58,5.79,18.65,5.79z"/>
	<path class="st5" d="M8.05,5.79c0,0.44,0.01,0.87,0.01,1.31c0,0.45-0.01,0.89-0.01,1.34c-0.43,0-0.87,0.01-1.3,0.01
		c-0.45,0-0.89-0.01-1.34-0.01c0-0.45-0.01-0.89-0.01-1.34c0-0.43,0-0.87,0.01-1.3C5.85,5.79,6.3,5.78,6.75,5.77
		C7.18,5.78,7.62,5.78,8.05,5.79z"/>
	<path class="st5" d="M6.75,16.39c0.43,0,0.87,0.01,1.3,0.01c0.01,0.45,0.01,0.89,0.02,1.34c0,0.38,0,0.76-0.01,1.14
		c0,0.06-0.01,0.13-0.01,0.19c0,0,0,0,0,0c-0.43,0-0.87,0-1.3,0c-0.44,0-0.89,0-1.33-0.01l0,0c0-0.44-0.01-0.89-0.01-1.33
		c0-0.44,0.01-0.89,0.01-1.33C5.86,16.39,6.3,16.39,6.75,16.39z"/>
</g>
</svg>
