<?xml version="1.0" encoding="utf-8"?>
<!-- Generator: Adobe Illustrator 24.3.0, SVG Export Plug-In . SVG Version: 6.00 Build 0)  -->
<svg version="1.1" id="Layer_1" xmlns="http://www.w3.org/2000/svg" xmlns:xlink="http://www.w3.org/1999/xlink" x="0px" y="0px"
	 viewBox="0 0 24 24" style="enable-background:new 0 0 24 24;" xml:space="preserve">
<style type="text/css">
	.st0{fill:#F4F9FF;}
	.st1{fill:#EF4B3E;}
	.st2{fill:#754C24;stroke:#FFFFFF;stroke-width:0.75;stroke-miterlimit:10;}
	.st3{stroke:#000000;stroke-width:2.856;stroke-miterlimit:10;}
	.st4{fill:none;stroke:#FFFFFF;stroke-width:2;stroke-miterlimit:10;}
	.st5{fill:#FFFFFF;}
	.st6{fill:#F9F9F9;}
	.st7{fill:none;stroke:#FFFFFF;stroke-width:2.0229;stroke-miterlimit:10;}
	.st8{fill:#FFFFFF;stroke:#FFFFFF;stroke-width:0.5;stroke-miterlimit:10;}
	.st9{fill:none;stroke:#000000;stroke-width:7.6112;stroke-miterlimit:10;}
	.st10{stroke:#FFFFFF;stroke-miterlimit:10;}
	.st11{fill:none;stroke:#000000;stroke-width:6.6078;stroke-miterlimit:10;}
	.st12{stroke:#000000;stroke-width:1.7107;stroke-miterlimit:10;}
	.st13{fill:#FFFFFF;stroke:#EF4B3E;stroke-width:0.5304;stroke-miterlimit:10;}
	.st14{fill:#FFFFFF;stroke:#FFFFFF;stroke-width:0.406;stroke-miterlimit:10;}
	.st15{fill:none;stroke:#FFFFFF;stroke-width:1.0951;stroke-miterlimit:10;}
	.st16{fill:#FFFFFF;stroke:#FFFFFF;stroke-width:0.2707;stroke-miterlimit:10;}
	.st17{fill:#FFFFFF;stroke:#FFFFFF;stroke-width:0.3006;stroke-miterlimit:10;}
	.st18{stroke:#000000;stroke-width:0.25;stroke-miterlimit:10;}
	.st19{fill:#EF4B3E;stroke:#EF4B3E;stroke-width:0.5;stroke-miterlimit:10;}
	.st20{fill:#EF4B3E;stroke:#EF4B3E;stroke-width:0.5497;stroke-miterlimit:10;}
	.st21{fill:#FFFFFF;stroke:#FFFFFF;stroke-width:0.5497;stroke-miterlimit:10;}
	.st22{fill:#898989;}
	.st23{fill:#212529;}
	.st24{fill:#898989;stroke:#898989;stroke-width:0.25;stroke-miterlimit:10;}
	.st25{fill:#898989;stroke:#212529;stroke-width:0.25;stroke-miterlimit:10;}
	.st26{fill:#898989;stroke:#212529;stroke-width:0.1275;stroke-miterlimit:10;}
	.st27{fill:#898989;stroke:#212529;stroke-width:0.0697;stroke-miterlimit:10;}
	.st28{fill:#FF0000;}
	.st29{fill:#FFFF00;}
	.st30{fill:#00FF00;}
	.st31{fill:#00FFFF;}
	.st32{fill:#0000FF;}
	.st33{fill:#FF00FF;}
	.st34{fill:#C1272D;}
	.st35{fill:#F15A24;}
	.st36{fill:#F7931E;}
	.st37{fill:#FCEE21;}
	.st38{fill:#8CC63F;}
	.st39{fill:#006837;}
	.st40{fill:#ED1E79;}
	.st41{fill:#603813;}
	.st42{fill:#FFFFFF;stroke:#000000;stroke-width:0.4185;stroke-miterlimit:10;}
	.st43{fill:#454966;stroke:#454966;stroke-width:0.3101;stroke-miterlimit:10;}
	.st44{fill:#454966;stroke:#454966;stroke-miterlimit:10;}
	.st45{fill:#454966;stroke:#454966;stroke-width:0.75;stroke-miterlimit:10;}
	.st46{fill:#454966;}
	.st47{fill:#454966;stroke:#454966;stroke-width:0.3041;stroke-miterlimit:10;}
	.st48{fill:#202020;}
	.st49{fill:#FFFFFF;stroke:#454966;stroke-width:0.5;stroke-miterlimit:10;}
	.st50{fill:#DDDDDD;}
	.st51{fill:#FE5245;}
	.st52{fill:#FE9C39;}
	.st53{fill:#FFE831;}
	.st54{fill:#7ADFFE;}
	.st55{fill:#32AE49;}
	.st56{fill:none;}
	.st57{fill:#454966;stroke:#454966;stroke-width:0.5;stroke-miterlimit:10;}
	.st58{fill:#454966;stroke:#454966;stroke-width:0.5267;stroke-miterlimit:10;}
	.st59{fill:#454966;stroke:#454966;stroke-width:0.1953;stroke-miterlimit:10;}
	.st60{fill:#454966;stroke:#454966;stroke-width:0.4787;stroke-miterlimit:10;}
	.st61{fill:#454966;stroke:#454966;stroke-width:0.0519;stroke-miterlimit:10;}
	.st62{opacity:0.43;}
	.st63{fill:#454966;stroke:#454966;stroke-width:0.1042;stroke-miterlimit:10;}
	.st64{fill:#454966;stroke:#454966;stroke-width:0.1317;stroke-miterlimit:10;}
	.st65{fill:#454966;stroke:#454966;stroke-width:0.1847;stroke-miterlimit:10;}
	.st66{fill:#454966;stroke:#454966;stroke-width:0.0673;stroke-miterlimit:10;}
	.st67{fill:#F8F8FA;stroke:#B3B3B3;stroke-width:0.5857;stroke-miterlimit:10;}
	.st68{fill:#FFFFFF;stroke:#111827;stroke-width:0.3859;stroke-miterlimit:10;}
	.st69{fill:#F0493E;}
</style>
<g>
	<path class="st68" d="M2.61,15.24c0-0.03,0-0.06,0-0.09c0-0.38,0-0.76,0-1.14c0-0.03,0-0.06,0-0.09c0-0.33,0-0.66,0-0.99
		c0-0.03,0-0.06,0-0.09c0-0.39,0-0.78,0-1.17c0-0.39,0-0.78,0-1.18c0-0.38,0-0.76,0-1.14c0-0.39,0-0.78,0-1.18c0-0.38,0-0.76,0-1.14
		c0.02-0.34-0.02-0.69,0.06-1.03c0.19-0.74,0.87-1.3,1.63-1.32c0.21-0.01,0.42-0.01,0.63-0.01c0.39,0,0.78,0,1.17,0
		c0.39,0,0.78,0,1.18,0c0.38,0,0.76,0,1.14,0c0.39,0,0.78,0,1.18,0c0.26,0.02,0.52-0.02,0.77,0.03c0.14,0.07,0.25,0.18,0.34,0.31
		c0.08,0.27,0.04,0.56,0.05,0.83C10.75,5.92,10.73,6,10.71,6.08c-0.12,0.2-0.3,0.3-0.52,0.35c-0.05-0.04-0.11-0.02-0.16-0.02
		c-1.77,0-3.53,0-5.3,0c-0.06,0-0.11-0.02-0.16,0.02c-0.11,0-0.18,0.06-0.19,0.16C4.36,6.73,4.34,6.87,4.37,7.01
		c-0.02,0.38-0.02,0.76,0,1.14c-0.02,0.03-0.02,0.06,0,0.1c-0.02,0.33-0.02,0.66,0,0.99c-0.02,0.03-0.02,0.06,0,0.1
		c-0.02,0.38-0.02,0.76,0,1.14c-0.02,0.39-0.02,0.78,0,1.18c-0.02,0.39-0.02,0.78,0,1.17c-0.02,0.39-0.02,0.78,0,1.18
		c-0.02,0.38-0.02,0.76,0,1.14c-0.02,0.39-0.02,0.79,0,1.18c-0.02,0.39-0.02,0.78,0,1.17c-0.02,0.36-0.02,0.72,0,1.08
		c0,0.02,0,0.04,0,0.06c-0.03,0.13-0.02,0.26,0,0.39c0.02,0.12,0.09,0.19,0.21,0.19c0.12,0,0.23,0,0.35-0.01c0.39,0,0.78,0,1.18,0
		c0.39,0,0.78,0,1.17,0c0.38,0,0.76,0,1.15,0c0.39,0,0.78,0,1.17,0c0.38,0,0.76,0,1.14,0c0.39,0,0.78,0,1.17,0c0.39,0,0.78,0,1.18,0
		c0.38,0,0.76,0,1.14,0c0.39,0,0.78,0,1.18,0c0.38,0,0.76,0,1.14,0c0.13,0,0.26,0.01,0.38,0c0.13,0,0.2-0.08,0.2-0.2
		c0.01-0.13,0-0.26,0-0.38c0-0.38,0-0.76,0-1.14c0-0.39,0-0.78,0-1.18c0-0.39,0-0.78,0-1.17c0-0.03,0-0.06,0-0.09
		c0-0.35,0-0.7,0-1.05c0-0.16,0.01-0.32,0.01-0.48c-0.01-0.28,0.09-0.51,0.34-0.66c0.08-0.02,0.16-0.04,0.24-0.05
		c0.27,0.01,0.54,0.02,0.81,0.03c0.13,0.1,0.25,0.21,0.33,0.36c0.06,0.27,0.02,0.53,0.04,0.8c0,0.38,0,0.76,0,1.14
		c0,0.39,0,0.78,0,1.17c0,0.39,0,0.78,0,1.18c0,0.38,0,0.76,0,1.14c0,0.17-0.01,0.34-0.01,0.51c0,0.23-0.03,0.45-0.11,0.66
		c-0.18,0.53-0.56,0.87-1.07,1.08c-0.29,0.08-0.59,0.1-0.89,0.09c-4.13,0-8.26,0-12.4,0c-0.69,0-1.22-0.28-1.59-0.86
		c-0.15-0.24-0.23-0.52-0.24-0.8c-0.01-0.23-0.01-0.45-0.01-0.68c0-0.38,0-0.76,0-1.15c0-0.39,0-0.78,0-1.17c0-0.03,0-0.06,0-0.09
		C2.61,15.9,2.61,15.57,2.61,15.24z"/>
	<path class="st68" d="M21.23,5.84c0,0.38,0,0.76,0,1.14c0,0.39,0,0.78,0,1.18c-0.02,0.28,0.02,0.56-0.03,0.83
		c-0.07,0.13-0.19,0.23-0.31,0.31c-0.02,0.01-0.04,0.01-0.06,0.02c-0.48,0-0.97,0-1.45,0c-0.04-0.01-0.08-0.03-0.11-0.04
		c-0.24-0.15-0.31-0.36-0.29-0.63c0.01-0.16,0.01-0.33,0.01-0.49c0.03-0.39,0.05-0.78,0.05-1.18c0.01-0.25,0.02-0.49,0.03-0.74
		c0-0.05,0.03-0.11-0.03-0.16c-0.03-0.05-0.05-0.05-0.08,0c-0.01,0.01-0.02,0.02-0.04,0.04c-0.31,0.29-0.61,0.58-0.89,0.89
		c-0.12,0.1-0.24,0.21-0.34,0.34c-0.26,0.24-0.51,0.49-0.75,0.75c-0.14,0.11-0.27,0.24-0.38,0.38c-0.27,0.27-0.54,0.54-0.8,0.8
		c-0.11,0.11-0.23,0.23-0.34,0.34c-0.29,0.27-0.57,0.55-0.84,0.84c-0.12,0.1-0.23,0.21-0.34,0.34c-0.29,0.27-0.57,0.55-0.84,0.84
		c-0.11,0.09-0.21,0.19-0.31,0.31c-0.3,0.28-0.59,0.57-0.87,0.87c-0.11,0.09-0.22,0.19-0.31,0.31c-0.3,0.28-0.59,0.57-0.87,0.87
		c-0.12,0.11-0.24,0.2-0.33,0.34c-0.25,0.18-0.45,0.42-0.66,0.64c-0.04,0.04-0.08,0.08-0.12,0.12c-0.11,0.11-0.23,0.23-0.34,0.34
		c-0.04,0.04-0.08,0.07-0.12,0.11c-0.26,0.25-0.49,0.53-0.79,0.75c-0.09,0-0.17,0-0.26,0c-0.03-0.01-0.06-0.02-0.09-0.04
		c-0.36-0.32-0.69-0.67-1.02-1.02c-0.01-0.04-0.03-0.08-0.04-0.12c0-0.09,0.01-0.18,0.01-0.27c0.08-0.11,0.18-0.21,0.27-0.31
		c0.19-0.19,0.37-0.38,0.56-0.57c0.11-0.1,0.24-0.19,0.31-0.33c0.03-0.03,0.06-0.06,0.09-0.09c0.23-0.21,0.44-0.42,0.65-0.65
		c0.03-0.03,0.06-0.06,0.1-0.1c0.14-0.08,0.25-0.2,0.34-0.34c0.27-0.22,0.53-0.47,0.75-0.75c0.03-0.03,0.06-0.06,0.09-0.09
		c0.13-0.07,0.21-0.18,0.3-0.28c0.31-0.29,0.61-0.59,0.9-0.9c0.1-0.08,0.2-0.18,0.28-0.28c0.3-0.28,0.59-0.57,0.86-0.86
		c0.11-0.1,0.24-0.2,0.32-0.33c0.26-0.24,0.51-0.49,0.75-0.75c0.03-0.03,0.06-0.06,0.09-0.09c0.13-0.07,0.22-0.19,0.31-0.3
		c0.29-0.29,0.58-0.58,0.87-0.87c0.1-0.1,0.2-0.2,0.3-0.3c0.29-0.27,0.57-0.56,0.84-0.84c0.12-0.1,0.23-0.21,0.33-0.33
		c0.28-0.28,0.56-0.56,0.84-0.84c0.04-0.03,0.09-0.05,0.07-0.1c-0.02-0.06-0.08-0.06-0.13-0.06c-0.27,0.01-0.54,0.03-0.82,0.04
		c-0.38-0.01-0.76,0.02-1.15,0.04c-0.16,0-0.32,0-0.47,0.02c-0.34,0.03-0.58-0.09-0.7-0.42c0-0.23,0-0.47,0-0.7
		c0.02-0.27-0.02-0.54,0.03-0.8c0.08-0.12,0.16-0.23,0.28-0.3c0.1-0.02,0.19-0.04,0.29-0.04c1.93,0,3.85,0,5.78-0.01
		c0.28,0,0.46,0.1,0.58,0.35c0.05,0.27,0.01,0.54,0.03,0.8c0,0.39,0,0.78,0,1.17C21.23,5.05,21.23,5.44,21.23,5.84z"/>
</g>
</svg>
