<?xml version="1.0" encoding="utf-8"?>
<!-- Generator: Adobe Illustrator 24.3.0, SVG Export Plug-In . SVG Version: 6.00 Build 0)  -->
<svg version="1.1" id="Layer_1" xmlns="http://www.w3.org/2000/svg" xmlns:xlink="http://www.w3.org/1999/xlink" x="0px" y="0px"
	 viewBox="0 0 24 24" style="enable-background:new 0 0 24 24;" xml:space="preserve">
<style type="text/css">
	.st0{fill:#F4F9FF;}
	.st1{fill:#EF4B3E;}
	.st2{fill:#754C24;stroke:#FFFFFF;stroke-width:0.75;stroke-miterlimit:10;}
	.st3{stroke:#000000;stroke-width:2.856;stroke-miterlimit:10;}
	.st4{fill:none;stroke:#FFFFFF;stroke-width:2;stroke-miterlimit:10;}
	.st5{fill:#FFFFFF;}
	.st6{fill:#F9F9F9;}
	.st7{fill:none;stroke:#FFFFFF;stroke-width:2.0229;stroke-miterlimit:10;}
	.st8{fill:#FFFFFF;stroke:#FFFFFF;stroke-width:0.5;stroke-miterlimit:10;}
	.st9{fill:none;stroke:#000000;stroke-width:7.6112;stroke-miterlimit:10;}
	.st10{stroke:#FFFFFF;stroke-miterlimit:10;}
	.st11{fill:none;stroke:#000000;stroke-width:6.6078;stroke-miterlimit:10;}
	.st12{stroke:#000000;stroke-width:1.7107;stroke-miterlimit:10;}
	.st13{fill:#FFFFFF;stroke:#EF4B3E;stroke-width:0.5304;stroke-miterlimit:10;}
	.st14{fill:#FFFFFF;stroke:#FFFFFF;stroke-width:0.406;stroke-miterlimit:10;}
	.st15{fill:none;stroke:#FFFFFF;stroke-width:1.0951;stroke-miterlimit:10;}
	.st16{fill:#FFFFFF;stroke:#FFFFFF;stroke-width:0.2707;stroke-miterlimit:10;}
	.st17{fill:#FFFFFF;stroke:#FFFFFF;stroke-width:0.3006;stroke-miterlimit:10;}
	.st18{stroke:#000000;stroke-width:0.25;stroke-miterlimit:10;}
	.st19{fill:#EF4B3E;stroke:#EF4B3E;stroke-width:0.5;stroke-miterlimit:10;}
	.st20{fill:#EF4B3E;stroke:#EF4B3E;stroke-width:0.5497;stroke-miterlimit:10;}
	.st21{fill:#FFFFFF;stroke:#FFFFFF;stroke-width:0.5497;stroke-miterlimit:10;}
	.st22{fill:#898989;}
	.st23{fill:#212529;}
	.st24{fill:#898989;stroke:#898989;stroke-width:0.25;stroke-miterlimit:10;}
	.st25{fill:#898989;stroke:#212529;stroke-width:0.25;stroke-miterlimit:10;}
	.st26{fill:#898989;stroke:#212529;stroke-width:0.1275;stroke-miterlimit:10;}
	.st27{fill:#898989;stroke:#212529;stroke-width:0.0697;stroke-miterlimit:10;}
	.st28{fill:#FF0000;}
	.st29{fill:#FFFF00;}
	.st30{fill:#00FF00;}
	.st31{fill:#00FFFF;}
	.st32{fill:#0000FF;}
	.st33{fill:#FF00FF;}
	.st34{fill:#C1272D;}
	.st35{fill:#F15A24;}
	.st36{fill:#F7931E;}
	.st37{fill:#FCEE21;}
	.st38{fill:#8CC63F;}
	.st39{fill:#006837;}
	.st40{fill:#ED1E79;}
	.st41{fill:#603813;}
	.st42{fill:#FFFFFF;stroke:#000000;stroke-width:0.4185;stroke-miterlimit:10;}
	.st43{fill:#454966;stroke:#454966;stroke-width:0.3101;stroke-miterlimit:10;}
	.st44{fill:#454966;stroke:#454966;stroke-miterlimit:10;}
	.st45{fill:#454966;stroke:#454966;stroke-width:0.75;stroke-miterlimit:10;}
	.st46{fill:#454966;}
	.st47{fill:#454966;stroke:#454966;stroke-width:0.3041;stroke-miterlimit:10;}
	.st48{fill:#202020;}
	.st49{fill:#FFFFFF;stroke:#454966;stroke-width:0.5;stroke-miterlimit:10;}
	.st50{fill:#DDDDDD;}
	.st51{fill:#FE5245;}
	.st52{fill:#FE9C39;}
	.st53{fill:#FFE831;}
	.st54{fill:#7ADFFE;}
	.st55{fill:#32AE49;}
	.st56{fill:none;}
	.st57{fill:#454966;stroke:#454966;stroke-width:0.5;stroke-miterlimit:10;}
	.st58{fill:#454966;stroke:#454966;stroke-width:0.5267;stroke-miterlimit:10;}
	.st59{fill:#454966;stroke:#454966;stroke-width:0.1953;stroke-miterlimit:10;}
	.st60{fill:#454966;stroke:#454966;stroke-width:0.4787;stroke-miterlimit:10;}
	.st61{fill:#454966;stroke:#454966;stroke-width:0.0519;stroke-miterlimit:10;}
	.st62{opacity:0.43;}
	.st63{fill:#454966;stroke:#454966;stroke-width:0.1042;stroke-miterlimit:10;}
	.st64{fill:#454966;stroke:#454966;stroke-width:0.1317;stroke-miterlimit:10;}
	.st65{fill:#454966;stroke:#454966;stroke-width:0.1847;stroke-miterlimit:10;}
	.st66{fill:#454966;stroke:#454966;stroke-width:0.0673;stroke-miterlimit:10;}
	.st67{fill:#F8F8FA;stroke:#B3B3B3;stroke-width:0.5857;stroke-miterlimit:10;}
	.st68{fill:#FFFFFF;stroke:#111827;stroke-width:0.3859;stroke-miterlimit:10;}
	.st69{fill:#F0493E;}
</style>
<g>
	<path class="st5" d="M22.36,7.04c-0.02,1.66-0.57,2.94-1.62,4.01c-1.09,1.1-2.19,2.19-3.29,3.29c-0.16,0.17-0.35,0.25-0.58,0.17
		c-0.23-0.08-0.31-0.27-0.33-0.49c-0.01-0.16-0.02-0.32-0.04-0.47c-0.03-0.23,0.05-0.41,0.22-0.58c0.98-0.97,1.95-1.95,2.93-2.93
		c0.56-0.56,0.98-1.21,1.13-2c0.3-1.57-0.15-2.89-1.4-3.89c-1.32-1.06-3.09-1.12-4.5-0.2c-0.25,0.16-0.47,0.36-0.68,0.57
		c-1.04,1.03-2.08,2.07-3.12,3.11c-0.88,0.89-1.32,1.95-1.2,3.21c0.12,1.23,0.7,2.2,1.74,2.89c0.14,0.09,0.29,0.17,0.44,0.25
		c0.3,0.15,0.39,0.32,0.34,0.65c-0.02,0.16-0.05,0.31-0.09,0.46c-0.08,0.31-0.38,0.46-0.67,0.33c-1.77-0.8-2.86-2.15-3.18-4.05
		C8.15,9.53,8.69,7.94,10,6.62c1.06-1.07,2.11-2.14,3.18-3.19c1.29-1.26,2.84-1.79,4.63-1.53c2.24,0.32,4.06,2.1,4.46,4.32
		C22.33,6.54,22.35,6.87,22.36,7.04z"/>
	<path class="st5" d="M15.23,14.3c-0.03,1.53-0.55,2.81-1.61,3.87c-1.06,1.07-2.12,2.13-3.18,3.19c-0.91,0.91-2,1.47-3.3,1.59
		c-1.59,0.14-3-0.3-4.17-1.4c-1.35-1.27-1.91-2.85-1.67-4.69c0.15-1.2,0.69-2.22,1.54-3.08c1.09-1.1,2.19-2.19,3.29-3.29
		c0.17-0.17,0.35-0.29,0.61-0.19c0.16,0.06,0.28,0.17,0.3,0.34c0.03,0.27,0.07,0.55,0.06,0.82c-0.01,0.13-0.11,0.28-0.21,0.38
		c-0.97,0.99-1.95,1.97-2.93,2.94c-0.45,0.44-0.8,0.95-0.99,1.55c-0.45,1.43-0.21,2.73,0.77,3.86c1.45,1.67,4.08,1.73,5.66,0.13
		c1.06-1.08,2.15-2.14,3.21-3.22c0.95-0.97,1.33-2.14,1.09-3.47c-0.22-1.21-0.89-2.13-1.98-2.73c-0.09-0.05-0.18-0.09-0.26-0.14
		c-0.18-0.1-0.27-0.27-0.25-0.47c0.02-0.21,0.06-0.42,0.12-0.62c0.08-0.28,0.36-0.41,0.63-0.3c1.24,0.52,2.16,1.39,2.75,2.6
		C15.15,12.95,15.2,13.56,15.23,14.3z"/>
</g>
</svg>
